HIERARCHY
ROOT root
{
	OFFSET 0.000000 0.000000 0.000000
	CHANNELS 6 Xposition Yposition Zposition Zrotation Yrotation Xrotation
	JOINT lhip
	{
		OFFSET 0.058581 -0.082280 -0.017664
		CHANNELS 3 Zrotation Yrotation Xrotation
		JOINT lknee
		{
			OFFSET 0.043451 -0.386469 0.008037
			CHANNELS 3 Zrotation Yrotation Xrotation
			JOINT lankle
			{
				OFFSET -0.014790 -0.426874 -0.037428
				CHANNELS 3 Zrotation Yrotation Xrotation
				JOINT ltoe
				{
					OFFSET 0.041054 -0.060286 0.122042
					CHANNELS 3 Zrotation Yrotation Xrotation
					End Site
					{
						OFFSET 0.000000 0.000000 0.000000
					}
				}
			}
		}
	}
	JOINT rhip
	{
		OFFSET -0.060310 -0.090513 -0.013543
		CHANNELS 3 Zrotation Yrotation Xrotation
		JOINT rknee
		{
			OFFSET -0.043257 -0.383688 -0.004843
			CHANNELS 3 Zrotation Yrotation Xrotation
			JOINT rankle
			{
				OFFSET 0.019056 -0.420046 -0.034562
				CHANNELS 3 Zrotation Yrotation Xrotation
				JOINT rtoe
				{
					OFFSET -0.034840 -0.062106 0.130323
					CHANNELS 3 Zrotation Yrotation Xrotation
					End Site
					{
						OFFSET 0.000000 0.000000 0.000000
					}
				}
			}
		}
	}
	JOINT lowerback
	{
		OFFSET 0.004439 0.124404 -0.038385
		CHANNELS 3 Zrotation Yrotation Xrotation
		JOINT upperback
		{
			OFFSET 0.004488 0.137956 0.026820
			CHANNELS 3 Zrotation Yrotation Xrotation
			JOINT chest
			{
				OFFSET -0.002265 0.056032 0.002855
				CHANNELS 3 Zrotation Yrotation Xrotation
				JOINT lowerneck
				{
					OFFSET -0.013390 0.211636 -0.033468
					CHANNELS 3 Zrotation Yrotation Xrotation
					JOINT upperneck
					{
						OFFSET 0.010113 0.088937 0.050410
						CHANNELS 3 Zrotation Yrotation Xrotation
						End Site
						{
							OFFSET 0.000000 0.000000 0.000000
						}
					}
				}
				JOINT lclavicle
				{
					OFFSET 0.071702 0.114000 -0.018898
					CHANNELS 3 Zrotation Yrotation Xrotation
					JOINT lshoulder
					{
						OFFSET 0.122921 0.045205 -0.019046
						CHANNELS 3 Zrotation Yrotation Xrotation
						JOINT lelbow
						{
							OFFSET 0.255332 -0.015649 -0.022946
							CHANNELS 3 Zrotation Yrotation Xrotation
							JOINT lwrist
							{
								OFFSET 0.265709 0.012698 -0.007375
								CHANNELS 3 Zrotation Yrotation Xrotation
								End Site
								{
									OFFSET 0.000000 0.000000 0.000000
								}
							}
						}
					}
				}
				JOINT rclavicle
				{
					OFFSET -0.082954 0.112472 -0.023707
					CHANNELS 3 Zrotation Yrotation Xrotation
					JOINT rshoulder
					{
						OFFSET -0.113228 0.046853 -0.008472
						CHANNELS 3 Zrotation Yrotation Xrotation
						JOINT relbow
						{
							OFFSET -0.260127 -0.014369 -0.031269
							CHANNELS 3 Zrotation Yrotation Xrotation
							JOINT rwrist
							{
								OFFSET -0.269108 0.006794 -0.006027
								CHANNELS 3 Zrotation Yrotation Xrotation
								End Site
								{
									OFFSET 0.000000 0.000000 0.000000
								}
							}
						}
					}
				}
			}
		}
	}
}
MOTION
Frames: 7
Frame Time: 0.033333
-0.921509 -0.201459 0.990733 174.146308 2.436364 91.451174 9.748980 5.606873 -0.503729 -1.458942 5.195957 1.908436 0.277230 8.091867 -6.397809 0.000000 -0.000000 0.000000 -5.333511 -4.977290 -9.054727 0.156971 -5.011145 16.300836 4.332099 -5.090427 -8.144002 0.000000 -0.000000 0.000000 2.953336 0.280151 9.036089 3.193190 -0.756521 -2.004816 -0.881464 1.538252 -3.239500 0.950594 1.208514 -7.323520 0.873810 -1.694392 9.616066 -23.439342 -13.175675 0.630681 -54.133691 -21.652039 12.904102 98.561465 -79.110899 -82.513408 21.983811 4.858229 -23.346661 17.788190 19.224034 1.199690 59.790883 24.571397 18.144298 -80.278677 63.550615 -64.010569 -14.397624 3.112251 -7.772579 
-0.920570 -0.201993 0.991110 174.338599 2.432199 91.402909 9.766714 5.568807 -0.674298 -1.361294 5.122213 2.175424 0.113092 8.005105 -6.425899 0.000000 -0.000000 0.000000 -5.277573 -5.035277 -9.003692 0.179951 -5.078668 16.275188 4.233696 -5.190663 -8.146682 0.000000 -0.000000 0.000000 2.926454 0.363850 9.316748 3.208523 -0.947655 -1.829404 -0.687056 1.454331 -3.430805 0.967863 1.295819 -7.378399 1.054538 -1.453207 9.484531 -23.193132 -14.551516 0.666560 -53.474985 -22.699733 12.440987 91.975515 -77.877004 -76.473869 22.015391 4.755238 -23.021006 17.596886 20.594815 1.177134 58.304936 25.984223 17.355399 -76.879694 62.692798 -61.281642 -14.596067 3.172102 -7.764058 
-0.919689 -0.202669 0.991443 174.556341 2.435785 91.434418 9.790936 5.518031 -0.897753 -1.297106 5.045557 2.357203 -0.030255 7.911541 -6.420424 0.000000 -0.000000 0.000000 -5.234358 -5.105876 -9.005747 0.237551 -5.200686 16.187897 4.141233 -5.287453 -8.122272 0.000000 -0.000000 0.000000 2.877566 0.445634 9.578527 3.320330 -1.121766 -1.779354 -0.514768 1.397569 -3.594262 0.986237 1.420429 -7.428549 1.182706 -1.457725 9.615405 -23.016495 -16.002242 0.681525 -52.608632 -23.792723 11.910740 83.626607 -76.300675 -69.191700 21.676348 4.618102 -23.179674 17.495909 21.836338 1.171233 56.800352 27.305495 16.567831 -73.884902 61.818646 -58.876436 -14.440239 3.286120 -7.820170 
-0.918928 -0.203421 0.991720 174.824636 2.433234 91.522670 9.813949 5.486451 -1.146785 -1.270747 4.970089 2.440998 -0.174551 7.793503 -6.349493 0.000000 -0.000000 0.000000 -5.231175 -5.171600 -9.060331 0.326916 -5.373089 16.105701 4.071730 -5.388485 -8.081788 0.000000 -0.000000 0.000000 2.804577 0.515161 9.824342 3.460823 -1.231225 -1.789792 -0.326220 1.333674 -3.718852 0.968510 1.606918 -7.464352 1.242178 -1.624149 9.775077 -22.939767 -17.508987 0.685655 -51.565164 -24.904566 11.264761 74.938263 -74.466845 -61.946930 21.144783 4.485650 -23.718590 17.487993 22.987956 1.165612 55.591616 28.673004 15.810642 -71.167615 60.698814 -56.505391 -14.187230 3.466360 -7.569128 
-0.918355 -0.204096 0.992011 175.134442 2.416431 91.610465 9.829273 5.474325 -1.337667 -1.274469 4.894767 2.399967 -0.330007 7.688981 -6.200999 0.000000 -0.000000 0.000000 -5.242390 -5.233567 -9.111470 0.391234 -5.550061 16.038505 4.021904 -5.510220 -8.022970 0.000000 -0.000000 0.000000 2.787001 0.576485 10.100280 3.524944 -1.373446 -1.768984 -0.152141 1.280559 -3.866833 0.917054 1.799288 -7.501770 1.260033 -1.779488 9.867558 -22.936874 -18.961896 0.618550 -50.438097 -25.915967 10.672443 67.346244 -72.537611 -56.126868 20.943131 4.486023 -24.089183 17.606074 24.157027 1.141319 54.602679 30.060507 15.194009 -68.357737 59.195811 -54.100541 -14.278824 3.629356 -6.801817 
-0.917957 -0.204591 0.992299 175.423209 2.377702 91.672497 9.814360 5.480500 -1.438726 -1.281094 4.804259 2.266041 -0.477520 7.624716 -6.030336 0.000000 -0.000000 0.000000 -5.230326 -5.289516 -9.157802 0.359092 -5.689769 16.013943 3.975852 -5.646367 -7.967564 0.000000 -0.000000 0.000000 2.823881 0.586777 10.426886 3.518968 -1.587669 -1.704382 -0.067209 1.288271 -4.039555 0.886960 1.967070 -7.631963 1.285938 -1.877630 9.969174 -22.935944 -20.241655 0.482964 -49.334229 -26.766092 10.221342 61.554264 -70.688524 -52.101209 21.125281 4.522939 -24.052858 17.820472 25.319622 1.154501 53.519868 31.332992 14.613236 -65.311877 57.516053 -51.752036 -14.582317 3.769647 -5.901365 
-0.917720 -0.204894 0.992502 175.639699 2.320896 91.743530 9.754893 5.513079 -1.529569 -1.268754 4.702615 2.148044 -0.615806 7.575098 -5.906439 0.000000 -0.000000 0.000000 -5.237018 -5.314154 -9.273006 0.299884 -5.795442 16.096846 3.950146 -5.778810 -7.952695 0.000000 -0.000000 0.000000 2.831984 0.502893 10.755486 3.522415 -1.767125 -1.630028 -0.073451 1.345543 -4.181234 0.898730 2.098228 -7.900944 1.332077 -1.943801 10.095155 -22.886346 -21.301037 0.355916 -48.345378 -27.486336 9.843338 57.498811 -69.032318 -49.203016 21.097178 4.222797 -23.873364 18.026112 26.355874 1.223246 52.253491 32.387291 13.877622 -62.112589 55.922177 -49.385238 -14.514296 3.983976 -5.408345 
